# xmcd
#
# Track frame offsets:
#	182
#	20525
#	41517
#	54652
#	71805
#	85715
#	106865
#	119312
#	134905
#	146475
#
# Disc length: 2277 seconds
#
# Revision: 1
# Processed by: cddbd v1.4PL0 Copyright (c) Steve Scherf et al.
# Submitted via: audiograbber 1.82.01
#
DISCID=8e08e30a
DTITLE=Los LLaneros de la Frontera - de Padre Desconocido
DYEAR=1997
DGENRE=rancheras
TTITLE0=de padre desconocido
TTITLE1=ojitos verdes
TTITLE2=palabra de hombre
TTITLE3=me quisiste jugar a la mala
TTITLE4=nuestro pueblo natal
TTITLE5=dos monedas
TTITLE6=huerfanos por vida
TTITLE7=nuestra hija
TTITLE8=mil puñados de oro
TTITLE9=sin problemas
EXTD=
EXTT0=
EXTT1=
EXTT2=
EXTT3=
EXTT4=
EXTT5=
EXTT6=
EXTT7=
EXTT8=
EXTT9=
PLAYORDER=
